<svg width="48" height="48" viewBox="0 0 48 48" fill="none" xmlns="http://www.w3.org/2000/svg">
<g clip-path="url(#clip0_6_75)">
<path fill-rule="evenodd" clip-rule="evenodd" d="M5.65501 1.53295C6.17993 1.00882 6.81025 0.602227 7.5042 0.340122C8.19815 0.0780174 8.93987 -0.0336156 9.68023 0.012621C10.4206 0.0588577 11.1427 0.261908 11.7986 0.608316C12.4545 0.954725 13.0294 1.43658 13.485 2.02195L18.87 8.93995C19.857 10.209 20.205 11.862 19.815 13.422L18.174 19.992C18.0892 20.3322 18.0937 20.6887 18.1873 21.0267C18.2809 21.3647 18.4603 21.6727 18.708 21.921L26.079 29.292C26.3275 29.5402 26.6361 29.7199 26.9747 29.8135C27.3132 29.907 27.6703 29.9113 28.011 29.826L34.578 28.185C35.3479 27.9925 36.1514 27.9775 36.9278 28.1412C37.7043 28.3049 38.4334 28.643 39.06 29.13L45.978 34.512C48.465 36.447 48.693 40.122 46.467 42.345L43.365 45.447C41.145 47.667 37.827 48.642 34.734 47.553C26.8176 44.7675 19.6298 40.2355 13.704 34.293C7.76188 28.368 3.22983 21.1813 0.444009 13.266C-0.641991 10.176 0.333009 6.85495 2.55301 4.63495L5.65501 1.53295Z" fill="white"/>
</g>
<defs>
<clipPath id="clip0_6_75">
<rect width="48" height="48" fill="white"/>
</clipPath>
</defs>
</svg>
