<svg width="40" height="40" viewBox="0 0 40 40" fill="none" xmlns="http://www.w3.org/2000/svg">
<path d="M36.0547 11.0782C35.5311 9.8658 34.7761 8.76717 33.832 7.84378C32.8872 6.91763 31.7733 6.18163 30.5508 5.67581C29.2831 5.14922 27.9235 4.87968 26.5508 4.88284C24.625 4.88284 22.7461 5.41018 21.1133 6.40628C20.7227 6.64456 20.3516 6.90628 20 7.19143C19.6484 6.90628 19.2773 6.64456 18.8867 6.40628C17.2539 5.41018 15.375 4.88284 13.4492 4.88284C12.0625 4.88284 10.7188 5.14847 9.44922 5.67581C8.22266 6.18362 7.11719 6.91409 6.16797 7.84378C5.22264 8.76613 4.46749 9.86502 3.94531 11.0782C3.40234 12.3399 3.125 13.6797 3.125 15.0586C3.125 16.3594 3.39063 17.7149 3.91797 19.0938C4.35938 20.2461 4.99219 21.4414 5.80078 22.6485C7.08203 24.5586 8.84375 26.5508 11.0312 28.5703C14.6562 31.918 18.2461 34.2305 18.3984 34.3242L19.3242 34.918C19.7344 35.1797 20.2617 35.1797 20.6719 34.918L21.5977 34.3242C21.75 34.2266 25.3359 31.918 28.9648 28.5703C31.1523 26.5508 32.9141 24.5586 34.1953 22.6485C35.0039 21.4414 35.6406 20.2461 36.0781 19.0938C36.6055 17.7149 36.8711 16.3594 36.8711 15.0586C36.875 13.6797 36.5977 12.3399 36.0547 11.0782Z" fill="#0A0E6C"/>
<path d="M13.7008 15.0967C12.3708 15.0967 11.4308 16.3267 11.4308 18.2467C11.4308 20.1767 12.3708 21.4067 13.7008 21.4067C15.0308 21.4067 15.9708 20.1767 15.9708 18.2467C15.9708 16.3267 15.0308 15.0967 13.7008 15.0967ZM13.7008 15.8467C14.5708 15.8467 15.1808 16.7867 15.1808 18.2467C15.1808 19.7167 14.5708 20.6767 13.7008 20.6767C12.8208 20.6767 12.2208 19.7167 12.2208 18.2467C12.2208 16.7867 12.8208 15.8467 13.7008 15.8467ZM17.4108 14.4067V23.4467H18.2508V14.4067H17.4108ZM18.0508 18.0167V18.7167H19.7308V18.0167H18.0508ZM26.87 14.4067V23.4467H27.69V14.4067H26.87ZM27.22 17.9367V18.6267H28.89V17.9367H27.22ZM20.66 15.2467V21.2567H23.16V15.2467H22.47V17.5667H21.37V15.2467H20.66ZM21.37 18.2267H22.47V20.5767H21.37V18.2267ZM23.64 15.2467V21.2567H26.11V15.2467H25.41V17.5667H24.34V15.2467H23.64ZM24.34 18.2267H25.41V20.5767H24.34V18.2267Z" fill="white"/>
</svg>
