<svg width="40" height="40" viewBox="0 0 40 40" fill="none" xmlns="http://www.w3.org/2000/svg">
<path d="M36.0547 11.0782C35.5311 9.8658 34.7761 8.76717 33.832 7.84378C32.8872 6.91763 31.7733 6.18163 30.5508 5.67581C29.2831 5.14922 27.9235 4.87968 26.5508 4.88284C24.625 4.88284 22.7461 5.41018 21.1133 6.40628C20.7227 6.64456 20.3516 6.90628 20 7.19143C19.6484 6.90628 19.2773 6.64456 18.8867 6.40628C17.2539 5.41018 15.375 4.88284 13.4492 4.88284C12.0625 4.88284 10.7188 5.14847 9.44922 5.67581C8.22266 6.18362 7.11719 6.91409 6.16797 7.84378C5.22264 8.76613 4.46749 9.86502 3.94531 11.0782C3.40234 12.3399 3.125 13.6797 3.125 15.0586C3.125 16.3594 3.39063 17.7149 3.91797 19.0938C4.35938 20.2461 4.99219 21.4414 5.80078 22.6485C7.08203 24.5586 8.84375 26.5508 11.0312 28.5703C14.6562 31.918 18.2461 34.2305 18.3984 34.3242L19.3242 34.918C19.7344 35.1797 20.2617 35.1797 20.6719 34.918L21.5977 34.3242C21.75 34.2266 25.3359 31.918 28.9648 28.5703C31.1523 26.5508 32.9141 24.5586 34.1953 22.6485C35.0039 21.4414 35.6406 20.2461 36.0781 19.0938C36.6055 17.7149 36.8711 16.3594 36.8711 15.0586C36.875 13.6797 36.5977 12.3399 36.0547 11.0782Z" fill="#EA2593"/>
<path d="M15.7408 16.6867V17.3767H18.1308V16.6867H15.7408ZM13.7608 14.9167C12.4108 14.9167 11.4308 15.7967 11.4308 17.0567C11.4308 18.3167 12.4108 19.1867 13.7608 19.1867C15.1008 19.1867 16.0908 18.3167 16.0908 17.0567C16.0908 15.7967 15.1008 14.9167 13.7608 14.9167ZM13.7608 15.6267C14.6408 15.6267 15.2908 16.2067 15.2908 17.0567C15.2908 17.9067 14.6408 18.4967 13.7608 18.4967C12.8708 18.4967 12.2308 17.9067 12.2308 17.0567C12.2308 16.2067 12.8708 15.6267 13.7608 15.6267ZM17.9008 14.4067V19.5967H18.7308V14.4067H17.9008ZM12.8708 20.0667V23.3267H18.7308V20.0667H12.8708ZM17.9208 20.7267V22.6567H13.6808V20.7267H17.9208ZM20.85 15.3067V21.1567H25V15.3067H20.85ZM24.19 15.9767V20.4867H21.66V15.9767H24.19ZM26.61 14.4067V23.4467H27.45V14.4067H26.61ZM27.25 18.0167V18.7167H28.93V18.0167H27.25Z" fill="white"/>
</svg>
