<svg width="48" height="48" viewBox="0 0 48 48" fill="none" xmlns="http://www.w3.org/2000/svg">
<g clip-path="url(#clip0_6_77)">
<path fill-rule="evenodd" clip-rule="evenodd" d="M17.2128 27.2016L24.0048 31.8456L30.552 27.3288L45.228 41.808C44.8416 41.9328 44.4288 42 43.9992 42H4.0008C3.4728 42 2.9688 41.8968 2.5056 41.712L17.2128 27.2016ZM48 15.3024V37.9992C48 38.592 47.8704 39.1536 47.64 39.66L33.2544 25.4664L48 15.3024ZM2.26464e-06 15.4296L14.5008 25.3464L0.254402 39.4056C0.0856721 38.9559 -0.00050936 38.4795 2.26464e-06 37.9992V15.432V15.4296ZM43.9992 6C46.2072 6 48 7.7904 48 10.0008V11.4072L23.9952 27.9552L2.26464e-06 11.544V10.0008C2.26464e-06 7.7928 1.7904 6 4.0008 6H43.9992Z" fill="white"/>
</g>
<defs>
<clipPath id="clip0_6_77">
<rect width="48" height="48" fill="white"/>
</clipPath>
</defs>
</svg>
